<svg id="Ebene_1" data-name="Ebene 1" xmlns="http://www.w3.org/2000/svg" viewBox="0 0 236.03 23.94"><defs><style>.cls-1{fill:#133961;}.cls-2{fill:#00a3c6;}.cls-3,.cls-4,.cls-5{fill:none;}.cls-3,.cls-5{stroke:#00a3c6;}.cls-3,.cls-4{stroke-width:4.5px;}.cls-4{stroke:#133961;}.cls-5{stroke-width:5px;}</style></defs><path class="cls-1" d="M57.43,23.46h5.21L54.07.48H48.76l-8.64,23H45l1.76-4.93H55.7ZM51.28,5.79l3.08,8.87H48.15Zm19,17.67V15.33h3l5.18,8.13h5.79L78.4,14.59c3.27-1.09,5.19-3.55,5.19-6.65,0-4.77-3.36-7.46-9.16-7.46h-9v23Zm0-19h3.9c2.94,0,4.51,1.15,4.51,3.43s-1.57,3.39-4.51,3.39h-3.9Z" transform="translate(-0.02)"/><path class="cls-2" d="M105,16.32c0-3.39-2.18-5.25-6.21-6.05l-3.93-.8c-1.67-.32-3.11-1-3.11-2.56S93.08,4,95.44,4A4.08,4.08,0,0,1,99.7,8h4.93c-.32-4.8-4.1-7.81-9.25-7.81-5,0-8.58,3-8.58,7,0,3.81,2.69,5.7,6.18,6.37l3.78.74c1.95.38,3.07,1.24,3.07,2.68,0,1.86-1.76,2.95-4.23,2.95-3,0-4.6-1.63-4.73-4.16H85.94c.35,4.86,4,8,9.76,8S105,20.7,105,16.32ZM117.05,16c5.6,0,9.09-2.85,9.09-7.84S122.65.48,117.05.48h-8.48v23h4.86V16Zm0-11.39c2.75,0,4.28,1.31,4.28,3.58s-1.53,3.71-4.28,3.71h-3.59V4.58ZM144.9,19.23H134.31v-5.5h9.4V9.54h-9.4V4.7h10.36V.48H129.44v23H144.9Zm13.94,4.71a11.28,11.28,0,0,0,11.58-10h-5.15a6.43,6.43,0,0,1-6.37,5.6c-3.93,0-6.59-3.13-6.59-7.64S155,4.35,158.9,4.35a6.38,6.38,0,0,1,6.37,5.57h5.15A11.3,11.3,0,0,0,158.84,0a11.59,11.59,0,0,0-11.52,11.94C147.32,18.69,152.37,23.94,158.84,23.94Zm24.72-.48V4.86h7.26V.48H171.46V4.86h7.23v18.6Zm15,0V15.33h3l5.18,8.13h5.79l-5.92-8.87c3.27-1.09,5.19-3.55,5.19-6.65,0-4.77-3.36-7.46-9.15-7.46h-9v23Zm0-19h3.9c2.95,0,4.51,1.15,4.51,3.43s-1.56,3.39-4.51,3.39h-3.9Zm32.24,19h5.22l-8.58-23h-5.31l-8.64,23h4.9l1.76-4.93h8.93ZM224.69,5.79l3.07,8.87h-6.21Z" transform="translate(-0.02)"/><path class="cls-3" d="M16.33,7.17l4-4a2,2,0,0,1,2.83,0l7.42,7.42a2,2,0,0,1,0,2.83L23.2,20.8a2,2,0,0,1-2.83,0l-4.15-4.15" transform="translate(-0.02)"/><rect class="cls-4" x="4.44" y="4.72" width="14.5" height="14.5" rx="2" transform="translate(-5.06 11.77) rotate(-45)"/><path class="cls-5" d="M15.26,56.52" transform="translate(-0.02)"/></svg>